<?xml version="1.0" encoding="utf-8" standalone="no"?>
<!DOCTYPE svg PUBLIC "-//W3C//DTD SVG 1.1//EN"
  "http://www.w3.org/Graphics/SVG/1.1/DTD/svg11.dtd">
<svg xmlns:xlink="http://www.w3.org/1999/xlink" width="720pt" height="360pt" viewBox="0 0 720 360" xmlns="http://www.w3.org/2000/svg" version="1.1">
 <metadata>
  <rdf:RDF xmlns:dc="http://purl.org/dc/elements/1.1/" xmlns:cc="http://creativecommons.org/ns#" xmlns:rdf="http://www.w3.org/1999/02/22-rdf-syntax-ns#">
   <cc:Work>
    <dc:type rdf:resource="http://purl.org/dc/dcmitype/StillImage"/>
    <dc:date>2026-07-14T03:44:57.430683</dc:date>
    <dc:format>image/svg+xml</dc:format>
    <dc:creator>
     <cc:Agent>
      <dc:title>Matplotlib v3.11.0, https://matplotlib.org/</dc:title>
     </cc:Agent>
    </dc:creator>
   </cc:Work>
  </rdf:RDF>
 </metadata>
 <defs>
  <style type="text/css">*{stroke-linejoin: round; stroke-linecap: butt}</style>
 </defs>
 <g id="figure_1">
  <g id="patch_1">
   <path d="M 0 360 
L 720 360 
L 720 0 
L 0 0 
z
" style="fill: #0d1117"/>
  </g>
  <g id="axes_1">
   <g id="patch_2">
    <path d="M 28.6 160.6 
L 709.2 160.6 
L 709.2 26.16 
L 28.6 26.16 
z
" style="fill: #0d1117"/>
   </g>
   <g id="matplotlib.axis_1">
    <g id="xtick_1">
     <g id="line2d_1">
      <defs>
       <path id="me7322911cd" d="M 0 0 
L 0 3.5 
" style="stroke: #ffffff; stroke-width: 0.8"/>
      </defs>
      <g>
       <use xlink:href="#me7322911cd" x="59.536364" y="160.6" style="fill: #ffffff; stroke: #ffffff; stroke-width: 0.8"/>
      </g>
     </g>
     <g id="text_1">
      <!-- 0 -->
      <g style="fill: #ffffff" transform="translate(57.309489 172.918359) scale(0.07 -0.07)">
       <defs>
        <path id="DejaVuSans-13" d="M 2034 4250 
Q 1547 4250 1301 3770 
Q 1056 3291 1056 2328 
Q 1056 1369 1301 889 
Q 1547 409 2034 409 
Q 2525 409 2770 889 
Q 3016 1369 3016 2328 
Q 3016 3291 2770 3770 
Q 2525 4250 2034 4250 
z
M 2034 4750 
Q 2819 4750 3233 4129 
Q 3647 3509 3647 2328 
Q 3647 1150 3233 529 
Q 2819 -91 2034 -91 
Q 1250 -91 836 529 
Q 422 1150 422 2328 
Q 422 3509 836 4129 
Q 1250 4750 2034 4750 
z
" transform="scale(0.015625)"/>
       </defs>
       <use xlink:href="#DejaVuSans-13"/>
      </g>
     </g>
    </g>
    <g id="xtick_2">
     <g id="line2d_2">
      <g>
       <use xlink:href="#me7322911cd" x="145.470707" y="160.6" style="fill: #ffffff; stroke: #ffffff; stroke-width: 0.8"/>
      </g>
     </g>
     <g id="text_2">
      <!-- 50 -->
      <g style="fill: #ffffff" transform="translate(141.016957 172.918359) scale(0.07 -0.07)">
       <defs>
        <path id="DejaVuSans-18" d="M 691 4666 
L 3169 4666 
L 3169 4134 
L 1269 4134 
L 1269 2991 
Q 1406 3038 1543 3061 
Q 1681 3084 1819 3084 
Q 2600 3084 3056 2656 
Q 3513 2228 3513 1497 
Q 3513 744 3044 326 
Q 2575 -91 1722 -91 
Q 1428 -91 1123 -41 
Q 819 9 494 109 
L 494 744 
Q 775 591 1075 516 
Q 1375 441 1709 441 
Q 2250 441 2565 725 
Q 2881 1009 2881 1497 
Q 2881 1984 2565 2268 
Q 2250 2553 1709 2553 
Q 1456 2553 1204 2497 
Q 953 2441 691 2322 
L 691 4666 
z
" transform="scale(0.015625)"/>
       </defs>
       <use xlink:href="#DejaVuSans-18"/>
       <use xlink:href="#DejaVuSans-13" transform="translate(63.625 0)"/>
      </g>
     </g>
    </g>
    <g id="xtick_3">
     <g id="line2d_3">
      <g>
       <use xlink:href="#me7322911cd" x="231.405051" y="160.6" style="fill: #ffffff; stroke: #ffffff; stroke-width: 0.8"/>
      </g>
     </g>
     <g id="text_3">
      <!-- 100 -->
      <g style="fill: #ffffff" transform="translate(224.724426 172.918359) scale(0.07 -0.07)">
       <defs>
        <path id="DejaVuSans-14" d="M 794 531 
L 1825 531 
L 1825 4091 
L 703 3866 
L 703 4441 
L 1819 4666 
L 2450 4666 
L 2450 531 
L 3481 531 
L 3481 0 
L 794 0 
L 794 531 
z
" transform="scale(0.015625)"/>
       </defs>
       <use xlink:href="#DejaVuSans-14"/>
       <use xlink:href="#DejaVuSans-13" transform="translate(63.625 0)"/>
       <use xlink:href="#DejaVuSans-13" transform="translate(127.25 0)"/>
      </g>
     </g>
    </g>
    <g id="xtick_4">
     <g id="line2d_4">
      <g>
       <use xlink:href="#me7322911cd" x="317.339394" y="160.6" style="fill: #ffffff; stroke: #ffffff; stroke-width: 0.8"/>
      </g>
     </g>
     <g id="text_4">
      <!-- 150 -->
      <g style="fill: #ffffff" transform="translate(310.658769 172.918359) scale(0.07 -0.07)">
       <use xlink:href="#DejaVuSans-14"/>
       <use xlink:href="#DejaVuSans-18" transform="translate(63.625 0)"/>
       <use xlink:href="#DejaVuSans-13" transform="translate(127.25 0)"/>
      </g>
     </g>
    </g>
    <g id="xtick_5">
     <g id="line2d_5">
      <g>
       <use xlink:href="#me7322911cd" x="403.273737" y="160.6" style="fill: #ffffff; stroke: #ffffff; stroke-width: 0.8"/>
      </g>
     </g>
     <g id="text_5">
      <!-- 200 -->
      <g style="fill: #ffffff" transform="translate(396.593112 172.918359) scale(0.07 -0.07)">
       <defs>
        <path id="DejaVuSans-15" d="M 1228 531 
L 3431 531 
L 3431 0 
L 469 0 
L 469 531 
Q 828 903 1448 1529 
Q 2069 2156 2228 2338 
Q 2531 2678 2651 2914 
Q 2772 3150 2772 3378 
Q 2772 3750 2511 3984 
Q 2250 4219 1831 4219 
Q 1534 4219 1204 4116 
Q 875 4013 500 3803 
L 500 4441 
Q 881 4594 1212 4672 
Q 1544 4750 1819 4750 
Q 2544 4750 2975 4387 
Q 3406 4025 3406 3419 
Q 3406 3131 3298 2873 
Q 3191 2616 2906 2266 
Q 2828 2175 2409 1742 
Q 1991 1309 1228 531 
z
" transform="scale(0.015625)"/>
       </defs>
       <use xlink:href="#DejaVuSans-15"/>
       <use xlink:href="#DejaVuSans-13" transform="translate(63.625 0)"/>
       <use xlink:href="#DejaVuSans-13" transform="translate(127.25 0)"/>
      </g>
     </g>
    </g>
    <g id="xtick_6">
     <g id="line2d_6">
      <g>
       <use xlink:href="#me7322911cd" x="489.208081" y="160.6" style="fill: #ffffff; stroke: #ffffff; stroke-width: 0.8"/>
      </g>
     </g>
     <g id="text_6">
      <!-- 250 -->
      <g style="fill: #ffffff" transform="translate(482.527456 172.918359) scale(0.07 -0.07)">
       <use xlink:href="#DejaVuSans-15"/>
       <use xlink:href="#DejaVuSans-18" transform="translate(63.625 0)"/>
       <use xlink:href="#DejaVuSans-13" transform="translate(127.25 0)"/>
      </g>
     </g>
    </g>
    <g id="xtick_7">
     <g id="line2d_7">
      <g>
       <use xlink:href="#me7322911cd" x="575.142424" y="160.6" style="fill: #ffffff; stroke: #ffffff; stroke-width: 0.8"/>
      </g>
     </g>
     <g id="text_7">
      <!-- 300 -->
      <g style="fill: #ffffff" transform="translate(568.461799 172.918359) scale(0.07 -0.07)">
       <defs>
        <path id="DejaVuSans-16" d="M 2597 2516 
Q 3050 2419 3304 2112 
Q 3559 1806 3559 1356 
Q 3559 666 3084 287 
Q 2609 -91 1734 -91 
Q 1441 -91 1130 -33 
Q 819 25 488 141 
L 488 750 
Q 750 597 1062 519 
Q 1375 441 1716 441 
Q 2309 441 2620 675 
Q 2931 909 2931 1356 
Q 2931 1769 2642 2001 
Q 2353 2234 1838 2234 
L 1294 2234 
L 1294 2753 
L 1863 2753 
Q 2328 2753 2575 2939 
Q 2822 3125 2822 3475 
Q 2822 3834 2567 4026 
Q 2313 4219 1838 4219 
Q 1578 4219 1281 4162 
Q 984 4106 628 3988 
L 628 4550 
Q 988 4650 1302 4700 
Q 1616 4750 1894 4750 
Q 2613 4750 3031 4423 
Q 3450 4097 3450 3541 
Q 3450 3153 3228 2886 
Q 3006 2619 2597 2516 
z
" transform="scale(0.015625)"/>
       </defs>
       <use xlink:href="#DejaVuSans-16"/>
       <use xlink:href="#DejaVuSans-13" transform="translate(63.625 0)"/>
       <use xlink:href="#DejaVuSans-13" transform="translate(127.25 0)"/>
      </g>
     </g>
    </g>
    <g id="xtick_8">
     <g id="line2d_8">
      <g>
       <use xlink:href="#me7322911cd" x="661.076768" y="160.6" style="fill: #ffffff; stroke: #ffffff; stroke-width: 0.8"/>
      </g>
     </g>
     <g id="text_8">
      <!-- 350 -->
      <g style="fill: #ffffff" transform="translate(654.396143 172.918359) scale(0.07 -0.07)">
       <use xlink:href="#DejaVuSans-16"/>
       <use xlink:href="#DejaVuSans-18" transform="translate(63.625 0)"/>
       <use xlink:href="#DejaVuSans-13" transform="translate(127.25 0)"/>
      </g>
     </g>
    </g>
   </g>
   <g id="matplotlib.axis_2">
    <g id="ytick_1">
     <g id="line2d_9">
      <defs>
       <path id="m4be25860ac" d="M 0 0 
L -3.5 0 
" style="stroke: #ffffff; stroke-width: 0.8"/>
      </defs>
      <g>
       <use xlink:href="#m4be25860ac" x="28.6" y="154.489091" style="fill: #ffffff; stroke: #ffffff; stroke-width: 0.8"/>
      </g>
     </g>
     <g id="text_9">
      <!-- 0.0 -->
      <g style="fill: #ffffff" transform="translate(10.467813 157.148271) scale(0.07 -0.07)">
       <defs>
        <path id="DejaVuSans-11" d="M 684 794 
L 1344 794 
L 1344 0 
L 684 0 
L 684 794 
z
" transform="scale(0.015625)"/>
       </defs>
       <use xlink:href="#DejaVuSans-13"/>
       <use xlink:href="#DejaVuSans-11" transform="translate(63.625 0)"/>
       <use xlink:href="#DejaVuSans-13" transform="translate(95.40625 0)"/>
      </g>
     </g>
    </g>
    <g id="ytick_2">
     <g id="line2d_10">
      <g>
       <use xlink:href="#m4be25860ac" x="28.6" y="127.753864" style="fill: #ffffff; stroke: #ffffff; stroke-width: 0.8"/>
      </g>
     </g>
     <g id="text_10">
      <!-- 0.5 -->
      <g style="fill: #ffffff" transform="translate(10.467813 130.413043) scale(0.07 -0.07)">
       <use xlink:href="#DejaVuSans-13"/>
       <use xlink:href="#DejaVuSans-11" transform="translate(63.625 0)"/>
       <use xlink:href="#DejaVuSans-18" transform="translate(95.40625 0)"/>
      </g>
     </g>
    </g>
    <g id="ytick_3">
     <g id="line2d_11">
      <g>
       <use xlink:href="#m4be25860ac" x="28.6" y="101.018636" style="fill: #ffffff; stroke: #ffffff; stroke-width: 0.8"/>
      </g>
     </g>
     <g id="text_11">
      <!-- 1.0 -->
      <g style="fill: #ffffff" transform="translate(10.467813 103.677816) scale(0.07 -0.07)">
       <use xlink:href="#DejaVuSans-14"/>
       <use xlink:href="#DejaVuSans-11" transform="translate(63.625 0)"/>
       <use xlink:href="#DejaVuSans-13" transform="translate(95.40625 0)"/>
      </g>
     </g>
    </g>
    <g id="ytick_4">
     <g id="line2d_12">
      <g>
       <use xlink:href="#m4be25860ac" x="28.6" y="74.283409" style="fill: #ffffff; stroke: #ffffff; stroke-width: 0.8"/>
      </g>
     </g>
     <g id="text_12">
      <!-- 1.5 -->
      <g style="fill: #ffffff" transform="translate(10.467813 76.942589) scale(0.07 -0.07)">
       <use xlink:href="#DejaVuSans-14"/>
       <use xlink:href="#DejaVuSans-11" transform="translate(63.625 0)"/>
       <use xlink:href="#DejaVuSans-18" transform="translate(95.40625 0)"/>
      </g>
     </g>
    </g>
    <g id="ytick_5">
     <g id="line2d_13">
      <g>
       <use xlink:href="#m4be25860ac" x="28.6" y="47.548182" style="fill: #ffffff; stroke: #ffffff; stroke-width: 0.8"/>
      </g>
     </g>
     <g id="text_13">
      <!-- 2.0 -->
      <g style="fill: #ffffff" transform="translate(10.467813 50.207362) scale(0.07 -0.07)">
       <use xlink:href="#DejaVuSans-15"/>
       <use xlink:href="#DejaVuSans-11" transform="translate(63.625 0)"/>
       <use xlink:href="#DejaVuSans-13" transform="translate(95.40625 0)"/>
      </g>
     </g>
    </g>
   </g>
   <g id="line2d_14">
    <path d="M 59.536364 154.489091 
L 99.066162 154.489091 
L 100.784848 131.573182 
L 111.09697 131.573182 
L 112.815657 154.489091 
L 195.312626 154.489091 
L 197.031313 131.573182 
L 207.343434 131.573182 
L 209.062121 154.489091 
L 231.405051 154.489091 
L 233.123737 146.850455 
L 243.435859 146.850455 
L 245.154545 154.489091 
L 420.460606 154.489091 
L 422.179293 108.657273 
L 432.491414 108.657273 
L 434.210101 154.489091 
L 664.514141 154.489091 
L 666.232828 139.211818 
L 671.388889 139.211818 
L 673.107576 39.909545 
L 674.826263 32.270909 
L 676.544949 32.270909 
L 678.263636 47.548182 
L 678.263636 47.548182 
" clip-path="url(#p65f585b420)" style="fill: none; stroke: #39d353; stroke-width: 1.5; stroke-linecap: square"/>
   </g>
   <g id="patch_3">
    <path d="M 28.6 160.6 
L 28.6 26.16 
" style="fill: none; stroke: #30363d; stroke-width: 0.8; stroke-linejoin: miter; stroke-linecap: square"/>
   </g>
   <g id="patch_4">
    <path d="M 709.2 160.6 
L 709.2 26.16 
" style="fill: none; stroke: #30363d; stroke-width: 0.8; stroke-linejoin: miter; stroke-linecap: square"/>
   </g>
   <g id="patch_5">
    <path d="M 28.6 160.6 
L 709.2 160.6 
" style="fill: none; stroke: #30363d; stroke-width: 0.8; stroke-linejoin: miter; stroke-linecap: square"/>
   </g>
   <g id="patch_6">
    <path d="M 28.6 26.16 
L 709.2 26.16 
" style="fill: none; stroke: #30363d; stroke-width: 0.8; stroke-linejoin: miter; stroke-linecap: square"/>
   </g>
   <g id="text_14">
    <!-- Commit activity — 7-day rolling average -->
    <g style="fill: #ffffff" transform="translate(247.47875 20.16) scale(0.12 -0.12)">
     <defs>
      <path id="DejaVuSans-26" d="M 4122 4306 
L 4122 3641 
Q 3803 3938 3442 4084 
Q 3081 4231 2675 4231 
Q 1875 4231 1450 3742 
Q 1025 3253 1025 2328 
Q 1025 1406 1450 917 
Q 1875 428 2675 428 
Q 3081 428 3442 575 
Q 3803 722 4122 1019 
L 4122 359 
Q 3791 134 3420 21 
Q 3050 -91 2638 -91 
Q 1578 -91 968 557 
Q 359 1206 359 2328 
Q 359 3453 968 4101 
Q 1578 4750 2638 4750 
Q 3056 4750 3426 4639 
Q 3797 4528 4122 4306 
z
" transform="scale(0.015625)"/>
      <path id="DejaVuSans-52" d="M 1959 3097 
Q 1497 3097 1228 2736 
Q 959 2375 959 1747 
Q 959 1119 1226 758 
Q 1494 397 1959 397 
Q 2419 397 2687 759 
Q 2956 1122 2956 1747 
Q 2956 2369 2687 2733 
Q 2419 3097 1959 3097 
z
M 1959 3584 
Q 2709 3584 3137 3096 
Q 3566 2609 3566 1747 
Q 3566 888 3137 398 
Q 2709 -91 1959 -91 
Q 1206 -91 779 398 
Q 353 888 353 1747 
Q 353 2609 779 3096 
Q 1206 3584 1959 3584 
z
" transform="scale(0.015625)"/>
      <path id="DejaVuSans-50" d="M 3328 2828 
Q 3544 3216 3844 3400 
Q 4144 3584 4550 3584 
Q 5097 3584 5394 3201 
Q 5691 2819 5691 2113 
L 5691 0 
L 5113 0 
L 5113 2094 
Q 5113 2597 4934 2840 
Q 4756 3084 4391 3084 
Q 3944 3084 3684 2787 
Q 3425 2491 3425 1978 
L 3425 0 
L 2847 0 
L 2847 2094 
Q 2847 2600 2669 2842 
Q 2491 3084 2119 3084 
Q 1678 3084 1418 2786 
Q 1159 2488 1159 1978 
L 1159 0 
L 581 0 
L 581 3500 
L 1159 3500 
L 1159 2956 
Q 1356 3278 1631 3431 
Q 1906 3584 2284 3584 
Q 2666 3584 2933 3390 
Q 3200 3197 3328 2828 
z
" transform="scale(0.015625)"/>
      <path id="DejaVuSans-4c" d="M 603 3500 
L 1178 3500 
L 1178 0 
L 603 0 
L 603 3500 
z
M 603 4863 
L 1178 4863 
L 1178 4134 
L 603 4134 
L 603 4863 
z
" transform="scale(0.015625)"/>
      <path id="DejaVuSans-57" d="M 1172 4494 
L 1172 3500 
L 2356 3500 
L 2356 3053 
L 1172 3053 
L 1172 1153 
Q 1172 725 1289 603 
Q 1406 481 1766 481 
L 2356 481 
L 2356 0 
L 1766 0 
Q 1100 0 847 248 
Q 594 497 594 1153 
L 594 3053 
L 172 3053 
L 172 3500 
L 594 3500 
L 594 4494 
L 1172 4494 
z
" transform="scale(0.015625)"/>
      <path id="DejaVuSans-3" transform="scale(0.015625)"/>
      <path id="DejaVuSans-44" d="M 2194 1759 
Q 1497 1759 1228 1600 
Q 959 1441 959 1056 
Q 959 750 1161 570 
Q 1363 391 1709 391 
Q 2188 391 2477 730 
Q 2766 1069 2766 1631 
L 2766 1759 
L 2194 1759 
z
M 3341 1997 
L 3341 0 
L 2766 0 
L 2766 531 
Q 2569 213 2275 61 
Q 1981 -91 1556 -91 
Q 1019 -91 701 211 
Q 384 513 384 1019 
Q 384 1609 779 1909 
Q 1175 2209 1959 2209 
L 2766 2209 
L 2766 2266 
Q 2766 2663 2505 2880 
Q 2244 3097 1772 3097 
Q 1472 3097 1187 3025 
Q 903 2953 641 2809 
L 641 3341 
Q 956 3463 1253 3523 
Q 1550 3584 1831 3584 
Q 2591 3584 2966 3190 
Q 3341 2797 3341 1997 
z
" transform="scale(0.015625)"/>
      <path id="DejaVuSans-46" d="M 3122 3366 
L 3122 2828 
Q 2878 2963 2633 3030 
Q 2388 3097 2138 3097 
Q 1578 3097 1268 2742 
Q 959 2388 959 1747 
Q 959 1106 1268 751 
Q 1578 397 2138 397 
Q 2388 397 2633 464 
Q 2878 531 3122 666 
L 3122 134 
Q 2881 22 2623 -34 
Q 2366 -91 2075 -91 
Q 1284 -91 818 406 
Q 353 903 353 1747 
Q 353 2603 823 3093 
Q 1294 3584 2113 3584 
Q 2378 3584 2631 3529 
Q 2884 3475 3122 3366 
z
" transform="scale(0.015625)"/>
      <path id="DejaVuSans-59" d="M 191 3500 
L 800 3500 
L 1894 563 
L 2988 3500 
L 3597 3500 
L 2284 0 
L 1503 0 
L 191 3500 
z
" transform="scale(0.015625)"/>
      <path id="DejaVuSans-5c" d="M 2059 -325 
Q 1816 -950 1584 -1140 
Q 1353 -1331 966 -1331 
L 506 -1331 
L 506 -850 
L 844 -850 
Q 1081 -850 1212 -737 
Q 1344 -625 1503 -206 
L 1606 56 
L 191 3500 
L 800 3500 
L 1894 763 
L 2988 3500 
L 3597 3500 
L 2059 -325 
z
" transform="scale(0.015625)"/>
      <path id="DejaVuSans-af6" d="M 313 1978 
L 6088 1978 
L 6088 1528 
L 313 1528 
L 313 1978 
z
" transform="scale(0.015625)"/>
      <path id="DejaVuSans-1a" d="M 525 4666 
L 3525 4666 
L 3525 4397 
L 1831 0 
L 1172 0 
L 2766 4134 
L 525 4134 
L 525 4666 
z
" transform="scale(0.015625)"/>
      <path id="DejaVuSans-10" d="M 313 2009 
L 1997 2009 
L 1997 1497 
L 313 1497 
L 313 2009 
z
" transform="scale(0.015625)"/>
      <path id="DejaVuSans-47" d="M 2906 2969 
L 2906 4863 
L 3481 4863 
L 3481 0 
L 2906 0 
L 2906 525 
Q 2725 213 2448 61 
Q 2172 -91 1784 -91 
Q 1150 -91 751 415 
Q 353 922 353 1747 
Q 353 2572 751 3078 
Q 1150 3584 1784 3584 
Q 2172 3584 2448 3432 
Q 2725 3281 2906 2969 
z
M 947 1747 
Q 947 1113 1208 752 
Q 1469 391 1925 391 
Q 2381 391 2643 752 
Q 2906 1113 2906 1747 
Q 2906 2381 2643 2742 
Q 2381 3103 1925 3103 
Q 1469 3103 1208 2742 
Q 947 2381 947 1747 
z
" transform="scale(0.015625)"/>
      <path id="DejaVuSans-55" d="M 2631 2963 
Q 2534 3019 2420 3045 
Q 2306 3072 2169 3072 
Q 1681 3072 1420 2755 
Q 1159 2438 1159 1844 
L 1159 0 
L 581 0 
L 581 3500 
L 1159 3500 
L 1159 2956 
Q 1341 3275 1631 3429 
Q 1922 3584 2338 3584 
Q 2397 3584 2469 3576 
Q 2541 3569 2628 3553 
L 2631 2963 
z
" transform="scale(0.015625)"/>
      <path id="DejaVuSans-4f" d="M 603 4863 
L 1178 4863 
L 1178 0 
L 603 0 
L 603 4863 
z
" transform="scale(0.015625)"/>
      <path id="DejaVuSans-51" d="M 3513 2113 
L 3513 0 
L 2938 0 
L 2938 2094 
Q 2938 2591 2744 2837 
Q 2550 3084 2163 3084 
Q 1697 3084 1428 2787 
Q 1159 2491 1159 1978 
L 1159 0 
L 581 0 
L 581 3500 
L 1159 3500 
L 1159 2956 
Q 1366 3272 1645 3428 
Q 1925 3584 2291 3584 
Q 2894 3584 3203 3211 
Q 3513 2838 3513 2113 
z
" transform="scale(0.015625)"/>
      <path id="DejaVuSans-4a" d="M 2906 1791 
Q 2906 2416 2648 2759 
Q 2391 3103 1925 3103 
Q 1463 3103 1205 2759 
Q 947 2416 947 1791 
Q 947 1169 1205 825 
Q 1463 481 1925 481 
Q 2391 481 2648 825 
Q 2906 1169 2906 1791 
z
M 3481 434 
Q 3481 -459 3084 -895 
Q 2688 -1331 1869 -1331 
Q 1566 -1331 1297 -1286 
Q 1028 -1241 775 -1147 
L 775 -588 
Q 1028 -725 1275 -790 
Q 1522 -856 1778 -856 
Q 2344 -856 2625 -561 
Q 2906 -266 2906 331 
L 2906 616 
Q 2728 306 2450 153 
Q 2172 0 1784 0 
Q 1141 0 747 490 
Q 353 981 353 1791 
Q 353 2603 747 3093 
Q 1141 3584 1784 3584 
Q 2172 3584 2450 3431 
Q 2728 3278 2906 2969 
L 2906 3500 
L 3481 3500 
L 3481 434 
z
" transform="scale(0.015625)"/>
      <path id="DejaVuSans-48" d="M 3597 1894 
L 3597 1613 
L 953 1613 
Q 991 1019 1311 708 
Q 1631 397 2203 397 
Q 2534 397 2845 478 
Q 3156 559 3463 722 
L 3463 178 
Q 3153 47 2828 -22 
Q 2503 -91 2169 -91 
Q 1331 -91 842 396 
Q 353 884 353 1716 
Q 353 2575 817 3079 
Q 1281 3584 2069 3584 
Q 2775 3584 3186 3129 
Q 3597 2675 3597 1894 
z
M 3022 2063 
Q 3016 2534 2758 2815 
Q 2500 3097 2075 3097 
Q 1594 3097 1305 2825 
Q 1016 2553 972 2059 
L 3022 2063 
z
" transform="scale(0.015625)"/>
     </defs>
     <use xlink:href="#DejaVuSans-26"/>
     <use xlink:href="#DejaVuSans-52" transform="translate(69.828125 0)"/>
     <use xlink:href="#DejaVuSans-50" transform="translate(131.015625 0)"/>
     <use xlink:href="#DejaVuSans-50" transform="translate(228.421875 0)"/>
     <use xlink:href="#DejaVuSans-4c" transform="translate(325.828125 0)"/>
     <use xlink:href="#DejaVuSans-57" transform="translate(353.609375 0)"/>
     <use xlink:href="#DejaVuSans-3" transform="translate(392.8125 0)"/>
     <use xlink:href="#DejaVuSans-44" transform="translate(424.59375 0)"/>
     <use xlink:href="#DejaVuSans-46" transform="translate(485.875 0)"/>
     <use xlink:href="#DejaVuSans-57" transform="translate(540.859375 0)"/>
     <use xlink:href="#DejaVuSans-4c" transform="translate(580.0625 0)"/>
     <use xlink:href="#DejaVuSans-59" transform="translate(607.84375 0)"/>
     <use xlink:href="#DejaVuSans-4c" transform="translate(667.03125 0)"/>
     <use xlink:href="#DejaVuSans-57" transform="translate(694.8125 0)"/>
     <use xlink:href="#DejaVuSans-5c" transform="translate(734.015625 0)"/>
     <use xlink:href="#DejaVuSans-3" transform="translate(793.203125 0)"/>
     <use xlink:href="#DejaVuSans-af6" transform="translate(824.984375 0)"/>
     <use xlink:href="#DejaVuSans-3" transform="translate(924.984375 0)"/>
     <use xlink:href="#DejaVuSans-1a" transform="translate(956.765625 0)"/>
     <use xlink:href="#DejaVuSans-10" transform="translate(1020.390625 0)"/>
     <use xlink:href="#DejaVuSans-47" transform="translate(1056.46875 0)"/>
     <use xlink:href="#DejaVuSans-44" transform="translate(1119.953125 0)"/>
     <use xlink:href="#DejaVuSans-5c" transform="translate(1181.234375 0)"/>
     <use xlink:href="#DejaVuSans-3" transform="translate(1240.421875 0)"/>
     <use xlink:href="#DejaVuSans-55" transform="translate(1272.203125 0)"/>
     <use xlink:href="#DejaVuSans-52" transform="translate(1311.109375 0)"/>
     <use xlink:href="#DejaVuSans-4f" transform="translate(1372.296875 0)"/>
     <use xlink:href="#DejaVuSans-4f" transform="translate(1400.078125 0)"/>
     <use xlink:href="#DejaVuSans-4c" transform="translate(1427.859375 0)"/>
     <use xlink:href="#DejaVuSans-51" transform="translate(1455.640625 0)"/>
     <use xlink:href="#DejaVuSans-4a" transform="translate(1519.015625 0)"/>
     <use xlink:href="#DejaVuSans-3" transform="translate(1582.5 0)"/>
     <use xlink:href="#DejaVuSans-44" transform="translate(1614.28125 0)"/>
     <use xlink:href="#DejaVuSans-59" transform="translate(1675.5625 0)"/>
     <use xlink:href="#DejaVuSans-48" transform="translate(1734.75 0)"/>
     <use xlink:href="#DejaVuSans-55" transform="translate(1796.28125 0)"/>
     <use xlink:href="#DejaVuSans-44" transform="translate(1837.390625 0)"/>
     <use xlink:href="#DejaVuSans-4a" transform="translate(1898.671875 0)"/>
     <use xlink:href="#DejaVuSans-48" transform="translate(1962.15625 0)"/>
    </g>
   </g>
  </g>
  <g id="axes_2">
   <g id="patch_7">
    <path d="M 28.6 335.2 
L 709.2 335.2 
L 709.2 200.76 
L 28.6 200.76 
z
" style="fill: #0d1117"/>
   </g>
   <g id="matplotlib.axis_3">
    <g id="xtick_9">
     <g id="line2d_15">
      <g>
       <use xlink:href="#me7322911cd" x="56.136763" y="335.2" style="fill: #ffffff; stroke: #ffffff; stroke-width: 0.8"/>
      </g>
     </g>
     <g id="text_15">
      <!-- 0.0 -->
      <g style="fill: #ffffff" transform="translate(50.570669 347.518359) scale(0.07 -0.07)">
       <use xlink:href="#DejaVuSans-13"/>
       <use xlink:href="#DejaVuSans-11" transform="translate(63.625 0)"/>
       <use xlink:href="#DejaVuSans-13" transform="translate(95.40625 0)"/>
      </g>
     </g>
    </g>
    <g id="xtick_10">
     <g id="line2d_16">
      <g>
       <use xlink:href="#me7322911cd" x="180.902098" y="335.2" style="fill: #ffffff; stroke: #ffffff; stroke-width: 0.8"/>
      </g>
     </g>
     <g id="text_16">
      <!-- 0.1 -->
      <g style="fill: #ffffff" transform="translate(175.336004 347.518359) scale(0.07 -0.07)">
       <use xlink:href="#DejaVuSans-13"/>
       <use xlink:href="#DejaVuSans-11" transform="translate(63.625 0)"/>
       <use xlink:href="#DejaVuSans-14" transform="translate(95.40625 0)"/>
      </g>
     </g>
    </g>
    <g id="xtick_11">
     <g id="line2d_17">
      <g>
       <use xlink:href="#me7322911cd" x="305.667433" y="335.2" style="fill: #ffffff; stroke: #ffffff; stroke-width: 0.8"/>
      </g>
     </g>
     <g id="text_17">
      <!-- 0.2 -->
      <g style="fill: #ffffff" transform="translate(300.101339 347.518359) scale(0.07 -0.07)">
       <use xlink:href="#DejaVuSans-13"/>
       <use xlink:href="#DejaVuSans-11" transform="translate(63.625 0)"/>
       <use xlink:href="#DejaVuSans-15" transform="translate(95.40625 0)"/>
      </g>
     </g>
    </g>
    <g id="xtick_12">
     <g id="line2d_18">
      <g>
       <use xlink:href="#me7322911cd" x="430.432767" y="335.2" style="fill: #ffffff; stroke: #ffffff; stroke-width: 0.8"/>
      </g>
     </g>
     <g id="text_18">
      <!-- 0.3 -->
      <g style="fill: #ffffff" transform="translate(424.866673 347.518359) scale(0.07 -0.07)">
       <use xlink:href="#DejaVuSans-13"/>
       <use xlink:href="#DejaVuSans-11" transform="translate(63.625 0)"/>
       <use xlink:href="#DejaVuSans-16" transform="translate(95.40625 0)"/>
      </g>
     </g>
    </g>
    <g id="xtick_13">
     <g id="line2d_19">
      <g>
       <use xlink:href="#me7322911cd" x="555.198102" y="335.2" style="fill: #ffffff; stroke: #ffffff; stroke-width: 0.8"/>
      </g>
     </g>
     <g id="text_19">
      <!-- 0.4 -->
      <g style="fill: #ffffff" transform="translate(549.632008 347.518359) scale(0.07 -0.07)">
       <defs>
        <path id="DejaVuSans-17" d="M 2419 4116 
L 825 1625 
L 2419 1625 
L 2419 4116 
z
M 2253 4666 
L 3047 4666 
L 3047 1625 
L 3713 1625 
L 3713 1100 
L 3047 1100 
L 3047 0 
L 2419 0 
L 2419 1100 
L 313 1100 
L 313 1709 
L 2253 4666 
z
" transform="scale(0.015625)"/>
       </defs>
       <use xlink:href="#DejaVuSans-13"/>
       <use xlink:href="#DejaVuSans-11" transform="translate(63.625 0)"/>
       <use xlink:href="#DejaVuSans-17" transform="translate(95.40625 0)"/>
      </g>
     </g>
    </g>
    <g id="xtick_14">
     <g id="line2d_20">
      <g>
       <use xlink:href="#me7322911cd" x="679.963437" y="335.2" style="fill: #ffffff; stroke: #ffffff; stroke-width: 0.8"/>
      </g>
     </g>
     <g id="text_20">
      <!-- 0.5 -->
      <g style="fill: #ffffff" transform="translate(674.397343 347.518359) scale(0.07 -0.07)">
       <use xlink:href="#DejaVuSans-13"/>
       <use xlink:href="#DejaVuSans-11" transform="translate(63.625 0)"/>
       <use xlink:href="#DejaVuSans-18" transform="translate(95.40625 0)"/>
      </g>
     </g>
    </g>
   </g>
   <g id="matplotlib.axis_4">
    <g id="ytick_6">
     <g id="line2d_21">
      <g>
       <use xlink:href="#m4be25860ac" x="28.6" y="334.290015" style="fill: #ffffff; stroke: #ffffff; stroke-width: 0.8"/>
      </g>
     </g>
     <g id="text_21">
      <!-- 0 -->
      <g style="fill: #ffffff" transform="translate(17.14625 336.949195) scale(0.07 -0.07)">
       <use xlink:href="#DejaVuSans-13"/>
      </g>
     </g>
    </g>
    <g id="ytick_7">
     <g id="line2d_22">
      <g>
       <use xlink:href="#m4be25860ac" x="28.6" y="309.503649" style="fill: #ffffff; stroke: #ffffff; stroke-width: 0.8"/>
      </g>
     </g>
     <g id="text_22">
      <!-- 5 -->
      <g style="fill: #ffffff" transform="translate(17.14625 312.162829) scale(0.07 -0.07)">
       <use xlink:href="#DejaVuSans-18"/>
      </g>
     </g>
    </g>
    <g id="ytick_8">
     <g id="line2d_23">
      <g>
       <use xlink:href="#m4be25860ac" x="28.6" y="284.717284" style="fill: #ffffff; stroke: #ffffff; stroke-width: 0.8"/>
      </g>
     </g>
     <g id="text_23">
      <!-- 10 -->
      <g style="fill: #ffffff" transform="translate(12.6925 287.376463) scale(0.07 -0.07)">
       <use xlink:href="#DejaVuSans-14"/>
       <use xlink:href="#DejaVuSans-13" transform="translate(63.625 0)"/>
      </g>
     </g>
    </g>
    <g id="ytick_9">
     <g id="line2d_24">
      <g>
       <use xlink:href="#m4be25860ac" x="28.6" y="259.930918" style="fill: #ffffff; stroke: #ffffff; stroke-width: 0.8"/>
      </g>
     </g>
     <g id="text_24">
      <!-- 15 -->
      <g style="fill: #ffffff" transform="translate(12.6925 262.590098) scale(0.07 -0.07)">
       <use xlink:href="#DejaVuSans-14"/>
       <use xlink:href="#DejaVuSans-18" transform="translate(63.625 0)"/>
      </g>
     </g>
    </g>
    <g id="ytick_10">
     <g id="line2d_25">
      <g>
       <use xlink:href="#m4be25860ac" x="28.6" y="235.144552" style="fill: #ffffff; stroke: #ffffff; stroke-width: 0.8"/>
      </g>
     </g>
     <g id="text_25">
      <!-- 20 -->
      <g style="fill: #ffffff" transform="translate(12.6925 237.803732) scale(0.07 -0.07)">
       <use xlink:href="#DejaVuSans-15"/>
       <use xlink:href="#DejaVuSans-13" transform="translate(63.625 0)"/>
      </g>
     </g>
    </g>
    <g id="ytick_11">
     <g id="line2d_26">
      <g>
       <use xlink:href="#m4be25860ac" x="28.6" y="210.358186" style="fill: #ffffff; stroke: #ffffff; stroke-width: 0.8"/>
      </g>
     </g>
     <g id="text_26">
      <!-- 25 -->
      <g style="fill: #ffffff" transform="translate(12.6925 213.017366) scale(0.07 -0.07)">
       <use xlink:href="#DejaVuSans-15"/>
       <use xlink:href="#DejaVuSans-18" transform="translate(63.625 0)"/>
      </g>
     </g>
    </g>
   </g>
   <g id="line2d_27">
    <path d="M 59.536364 266.906541 
L 62.935964 250.041578 
L 66.335564 238.908324 
L 69.735165 268.477436 
L 73.134765 241.547307 
L 76.534366 292.470191 
L 83.333566 224.152185 
L 86.733167 272.026513 
L 90.132767 223.77944 
L 93.532368 262.364116 
L 96.931968 229.171887 
L 100.331568 230.126212 
L 103.731169 290.84823 
L 107.130769 253.292513 
L 110.53037 266.667993 
L 113.92997 254.885765 
L 117.32957 260.991637 
L 120.729171 287.017438 
L 124.128771 207.20698 
L 127.528372 259.297804 
L 130.927972 258.089153 
L 134.327572 236.281492 
L 137.727173 279.992379 
L 141.126773 235.983348 
L 144.526374 299.033517 
L 147.925974 289.842237 
L 151.325574 243.183444 
L 154.725175 291.257117 
L 158.124775 244.842666 
L 161.524376 269.461741 
L 164.923976 254.060364 
L 168.323576 219.265655 
L 171.723177 290.263348 
L 175.122777 261.595322 
L 178.522378 273.137162 
L 181.921978 262.648208 
L 185.321578 277.369272 
L 188.721179 314.348419 
L 192.120779 243.750904 
L 195.52038 263.387255 
L 198.91998 270.655856 
L 202.31958 244.210758 
L 205.719181 290.648896 
L 209.118781 228.634738 
L 212.518382 285.054188 
L 215.917982 280.975761 
L 219.317582 265.095191 
L 222.717183 303.373732 
L 226.116783 253.733255 
L 229.516384 288.714944 
L 232.915984 281.665763 
L 236.315584 216.786212 
L 239.715185 284.768119 
L 243.114785 250.939847 
L 246.514386 267.511904 
L 249.913986 253.703019 
L 253.313586 256.677462 
L 256.713187 324.184119 
L 260.112787 264.448946 
L 263.512388 266.953998 
L 266.911988 273.480954 
L 270.311588 245.543489 
L 273.711189 293.095447 
L 277.110789 221.668261 
L 280.51039 248.618138 
L 283.90999 259.297075 
L 287.30959 255.948493 
L 290.709191 291.077171 
L 294.108791 236.475327 
L 297.508392 294.042052 
L 300.907992 298.364114 
L 304.307592 218.110772 
L 307.707193 277.649293 
L 311.106793 239.93086 
L 314.506394 247.833193 
L 317.905994 252.583843 
L 321.305594 221.217635 
L 324.705195 295.958542 
L 328.104795 258.339446 
L 331.504396 260.61782 
L 334.903996 274.98094 
L 338.303596 241.689978 
L 341.703197 291.307807 
L 345.102797 230.694096 
L 348.502398 220.219877 
L 351.901998 259.477869 
L 355.301598 238.103837 
L 358.701199 272.109631 
L 362.100799 226.444353 
L 365.5004 275.242038 
L 368.9 308.290856 
L 372.2996 231.630746 
L 375.699201 273.734745 
L 379.098801 248.461737 
L 382.498402 239.903548 
L 385.898002 270.331204 
L 389.297602 206.870909 
L 392.697203 274.535294 
L 396.096803 256.747326 
L 399.496404 255.246913 
L 402.896004 283.740112 
L 406.295604 244.88266 
L 409.695205 295.024294 
L 413.094805 262.392229 
L 416.494406 217.53821 
L 419.894006 279.409164 
L 423.293606 240.28366 
L 426.693207 262.932207 
L 430.092807 237.500849 
L 433.492408 257.504974 
L 436.892008 312.891599 
L 440.291608 257.866207 
L 443.691209 278.284783 
L 447.090809 271.325461 
L 450.49041 255.867567 
L 453.89001 297.17543 
L 457.28961 220.412837 
L 460.689211 263.720372 
L 464.088811 264.268543 
L 467.488412 258.502915 
L 470.888012 293.580105 
L 474.287612 246.07287 
L 477.687213 311.516075 
L 481.086813 302.806587 
L 484.486414 239.392902 
L 487.886014 303.05289 
L 491.285614 257.429653 
L 494.685215 267.844646 
L 498.084815 259.720806 
L 501.484416 242.792901 
L 504.884016 302.609189 
L 508.283616 269.191469 
L 511.683217 288.985158 
L 515.082817 279.470765 
L 518.482418 276.400991 
L 521.882018 317.197523 
L 525.281618 247.680136 
L 528.681219 259.34283 
L 532.080819 268.786261 
L 535.48042 259.057743 
L 538.88002 293.120745 
L 542.27962 232.281824 
L 545.679221 307.688777 
L 549.078821 298.892453 
L 552.478422 260.889481 
L 555.878022 312.863303 
L 559.277622 262.86443 
L 562.677223 278.127174 
L 566.076823 280.092118 
L 569.476424 226.070948 
L 572.876024 285.64553 
L 576.275624 251.521369 
L 579.675225 281.470088 
L 583.074825 266.542887 
L 586.474426 258.332242 
L 589.874026 329.089091 
L 593.273626 266.429768 
L 596.673227 252.851323 
L 600.072827 272.823857 
L 603.472428 249.081669 
L 606.872028 282.440958 
L 610.271628 220.827866 
L 613.671229 266.270946 
L 617.070829 276.7504 
L 620.47043 255.242539 
L 623.87003 302.914501 
L 627.26963 251.936185 
L 630.669231 278.796994 
L 634.068831 298.747959 
L 637.468432 216.401458 
L 640.868032 269.272469 
L 644.267632 241.654811 
L 647.667233 255.67919 
L 651.066833 260.664821 
L 654.466434 227.565028 
L 657.866034 319.332483 
L 661.265634 273.022299 
L 664.665235 247.051327 
L 668.064835 285.41858 
L 671.464436 244.584683 
L 674.864036 272.850915 
L 678.263636 231.876414 
L 678.263636 231.876414 
" clip-path="url(#p7553501b27)" style="fill: none; stroke: #58a6ff; stroke-width: 1.2; stroke-linecap: square"/>
   </g>
   <g id="patch_8">
    <path d="M 28.6 335.2 
L 28.6 200.76 
" style="fill: none; stroke: #30363d; stroke-width: 0.8; stroke-linejoin: miter; stroke-linecap: square"/>
   </g>
   <g id="patch_9">
    <path d="M 709.2 335.2 
L 709.2 200.76 
" style="fill: none; stroke: #30363d; stroke-width: 0.8; stroke-linejoin: miter; stroke-linecap: square"/>
   </g>
   <g id="patch_10">
    <path d="M 28.6 335.2 
L 709.2 335.2 
" style="fill: none; stroke: #30363d; stroke-width: 0.8; stroke-linejoin: miter; stroke-linecap: square"/>
   </g>
   <g id="patch_11">
    <path d="M 28.6 200.76 
L 709.2 200.76 
" style="fill: none; stroke: #30363d; stroke-width: 0.8; stroke-linejoin: miter; stroke-linecap: square"/>
   </g>
   <g id="text_27">
    <!-- Commit rhythm — frequency spectrum (FFT) -->
    <g style="fill: #ffffff" transform="translate(234.453125 194.76) scale(0.12 -0.12)">
     <defs>
      <path id="DejaVuSans-4b" d="M 3513 2113 
L 3513 0 
L 2938 0 
L 2938 2094 
Q 2938 2591 2744 2837 
Q 2550 3084 2163 3084 
Q 1697 3084 1428 2787 
Q 1159 2491 1159 1978 
L 1159 0 
L 581 0 
L 581 4863 
L 1159 4863 
L 1159 2956 
Q 1366 3272 1645 3428 
Q 1925 3584 2291 3584 
Q 2894 3584 3203 3211 
Q 3513 2838 3513 2113 
z
" transform="scale(0.015625)"/>
      <path id="DejaVuSans-49" d="M 2375 4863 
L 2375 4384 
L 1825 4384 
Q 1516 4384 1395 4259 
Q 1275 4134 1275 3809 
L 1275 3500 
L 2222 3500 
L 2222 3053 
L 1275 3053 
L 1275 0 
L 697 0 
L 697 3053 
L 147 3053 
L 147 3500 
L 697 3500 
L 697 3744 
Q 697 4328 969 4595 
Q 1241 4863 1831 4863 
L 2375 4863 
z
" transform="scale(0.015625)"/>
      <path id="DejaVuSans-54" d="M 947 1747 
Q 947 1113 1208 752 
Q 1469 391 1925 391 
Q 2381 391 2643 752 
Q 2906 1113 2906 1747 
Q 2906 2381 2643 2742 
Q 2381 3103 1925 3103 
Q 1469 3103 1208 2742 
Q 947 2381 947 1747 
z
M 2906 525 
Q 2725 213 2448 61 
Q 2172 -91 1784 -91 
Q 1150 -91 751 415 
Q 353 922 353 1747 
Q 353 2572 751 3078 
Q 1150 3584 1784 3584 
Q 2172 3584 2448 3432 
Q 2725 3281 2906 2969 
L 2906 3500 
L 3481 3500 
L 3481 -1331 
L 2906 -1331 
L 2906 525 
z
" transform="scale(0.015625)"/>
      <path id="DejaVuSans-58" d="M 544 1381 
L 544 3500 
L 1119 3500 
L 1119 1403 
Q 1119 906 1312 657 
Q 1506 409 1894 409 
Q 2359 409 2629 706 
Q 2900 1003 2900 1516 
L 2900 3500 
L 3475 3500 
L 3475 0 
L 2900 0 
L 2900 538 
Q 2691 219 2414 64 
Q 2138 -91 1772 -91 
Q 1169 -91 856 284 
Q 544 659 544 1381 
z
M 1991 3584 
L 1991 3584 
z
" transform="scale(0.015625)"/>
      <path id="DejaVuSans-56" d="M 2834 3397 
L 2834 2853 
Q 2591 2978 2328 3040 
Q 2066 3103 1784 3103 
Q 1356 3103 1142 2972 
Q 928 2841 928 2578 
Q 928 2378 1081 2264 
Q 1234 2150 1697 2047 
L 1894 2003 
Q 2506 1872 2764 1633 
Q 3022 1394 3022 966 
Q 3022 478 2636 193 
Q 2250 -91 1575 -91 
Q 1294 -91 989 -36 
Q 684 19 347 128 
L 347 722 
Q 666 556 975 473 
Q 1284 391 1588 391 
Q 1994 391 2212 530 
Q 2431 669 2431 922 
Q 2431 1156 2273 1281 
Q 2116 1406 1581 1522 
L 1381 1569 
Q 847 1681 609 1914 
Q 372 2147 372 2553 
Q 372 3047 722 3315 
Q 1072 3584 1716 3584 
Q 2034 3584 2315 3537 
Q 2597 3491 2834 3397 
z
" transform="scale(0.015625)"/>
      <path id="DejaVuSans-53" d="M 1159 525 
L 1159 -1331 
L 581 -1331 
L 581 3500 
L 1159 3500 
L 1159 2969 
Q 1341 3281 1617 3432 
Q 1894 3584 2278 3584 
Q 2916 3584 3314 3078 
Q 3713 2572 3713 1747 
Q 3713 922 3314 415 
Q 2916 -91 2278 -91 
Q 1894 -91 1617 61 
Q 1341 213 1159 525 
z
M 3116 1747 
Q 3116 2381 2855 2742 
Q 2594 3103 2138 3103 
Q 1681 3103 1420 2742 
Q 1159 2381 1159 1747 
Q 1159 1113 1420 752 
Q 1681 391 2138 391 
Q 2594 391 2855 752 
Q 3116 1113 3116 1747 
z
" transform="scale(0.015625)"/>
      <path id="DejaVuSans-b" d="M 1984 4856 
Q 1566 4138 1362 3434 
Q 1159 2731 1159 2009 
Q 1159 1288 1364 580 
Q 1569 -128 1984 -844 
L 1484 -844 
Q 1016 -109 783 600 
Q 550 1309 550 2009 
Q 550 2706 781 3412 
Q 1013 4119 1484 4856 
L 1984 4856 
z
" transform="scale(0.015625)"/>
      <path id="DejaVuSans-29" d="M 628 4666 
L 3309 4666 
L 3309 4134 
L 1259 4134 
L 1259 2759 
L 3109 2759 
L 3109 2228 
L 1259 2228 
L 1259 0 
L 628 0 
L 628 4666 
z
" transform="scale(0.015625)"/>
      <path id="DejaVuSans-37" d="M -19 4666 
L 3928 4666 
L 3928 4134 
L 2272 4134 
L 2272 0 
L 1638 0 
L 1638 4134 
L -19 4134 
L -19 4666 
z
" transform="scale(0.015625)"/>
      <path id="DejaVuSans-c" d="M 513 4856 
L 1013 4856 
Q 1481 4119 1714 3412 
Q 1947 2706 1947 2009 
Q 1947 1309 1714 600 
Q 1481 -109 1013 -844 
L 513 -844 
Q 928 -128 1133 580 
Q 1338 1288 1338 2009 
Q 1338 2731 1133 3434 
Q 928 4138 513 4856 
z
" transform="scale(0.015625)"/>
     </defs>
     <use xlink:href="#DejaVuSans-26"/>
     <use xlink:href="#DejaVuSans-52" transform="translate(69.828125 0)"/>
     <use xlink:href="#DejaVuSans-50" transform="translate(131.015625 0)"/>
     <use xlink:href="#DejaVuSans-50" transform="translate(228.421875 0)"/>
     <use xlink:href="#DejaVuSans-4c" transform="translate(325.828125 0)"/>
     <use xlink:href="#DejaVuSans-57" transform="translate(353.609375 0)"/>
     <use xlink:href="#DejaVuSans-3" transform="translate(392.8125 0)"/>
     <use xlink:href="#DejaVuSans-55" transform="translate(424.59375 0)"/>
     <use xlink:href="#DejaVuSans-4b" transform="translate(463.953125 0)"/>
     <use xlink:href="#DejaVuSans-5c" transform="translate(527.328125 0)"/>
     <use xlink:href="#DejaVuSans-57" transform="translate(586.515625 0)"/>
     <use xlink:href="#DejaVuSans-4b" transform="translate(625.71875 0)"/>
     <use xlink:href="#DejaVuSans-50" transform="translate(689.09375 0)"/>
     <use xlink:href="#DejaVuSans-3" transform="translate(786.5 0)"/>
     <use xlink:href="#DejaVuSans-af6" transform="translate(818.28125 0)"/>
     <use xlink:href="#DejaVuSans-3" transform="translate(918.28125 0)"/>
     <use xlink:href="#DejaVuSans-49" transform="translate(950.0625 0)"/>
     <use xlink:href="#DejaVuSans-55" transform="translate(985.265625 0)"/>
     <use xlink:href="#DejaVuSans-48" transform="translate(1024.171875 0)"/>
     <use xlink:href="#DejaVuSans-54" transform="translate(1085.703125 0)"/>
     <use xlink:href="#DejaVuSans-58" transform="translate(1149.1875 0)"/>
     <use xlink:href="#DejaVuSans-48" transform="translate(1212.5625 0)"/>
     <use xlink:href="#DejaVuSans-51" transform="translate(1274.09375 0)"/>
     <use xlink:href="#DejaVuSans-46" transform="translate(1337.46875 0)"/>
     <use xlink:href="#DejaVuSans-5c" transform="translate(1392.453125 0)"/>
     <use xlink:href="#DejaVuSans-3" transform="translate(1451.640625 0)"/>
     <use xlink:href="#DejaVuSans-56" transform="translate(1483.421875 0)"/>
     <use xlink:href="#DejaVuSans-53" transform="translate(1535.515625 0)"/>
     <use xlink:href="#DejaVuSans-48" transform="translate(1599 0)"/>
     <use xlink:href="#DejaVuSans-46" transform="translate(1660.53125 0)"/>
     <use xlink:href="#DejaVuSans-57" transform="translate(1715.515625 0)"/>
     <use xlink:href="#DejaVuSans-55" transform="translate(1754.71875 0)"/>
     <use xlink:href="#DejaVuSans-58" transform="translate(1795.828125 0)"/>
     <use xlink:href="#DejaVuSans-50" transform="translate(1859.203125 0)"/>
     <use xlink:href="#DejaVuSans-3" transform="translate(1956.609375 0)"/>
     <use xlink:href="#DejaVuSans-b" transform="translate(1988.390625 0)"/>
     <use xlink:href="#DejaVuSans-29" transform="translate(2027.40625 0)"/>
     <use xlink:href="#DejaVuSans-29" transform="translate(2084.921875 0)"/>
     <use xlink:href="#DejaVuSans-37" transform="translate(2140.6875 0)"/>
     <use xlink:href="#DejaVuSans-c" transform="translate(2201.765625 0)"/>
    </g>
   </g>
  </g>
 </g>
 <defs>
  <clipPath id="p65f585b420">
   <rect x="28.6" y="26.16" width="680.6" height="134.44"/>
  </clipPath>
  <clipPath id="p7553501b27">
   <rect x="28.6" y="200.76" width="680.6" height="134.44"/>
  </clipPath>
 </defs>
</svg>
